<svg xmlns="http://www.w3.org/2000/svg" width="600" height="400" viewBox="0 0 600 400">
  <rect width="600" height="400" fill="#F0FDF4"/>
  <ellipse cx="300" cy="220" rx="140" ry="100" fill="#DCFCE7" opacity="0.4"/>
  <g opacity="0.7">
    <ellipse cx="270" cy="190" rx="20" ry="8" fill="#4ADE80" transform="rotate(-30 270 190)"/>
    <ellipse cx="310" cy="185" rx="22" ry="9" fill="#22C55E" transform="rotate(15 310 185)"/>
    <ellipse cx="290" cy="210" rx="18" ry="7" fill="#4ADE80" transform="rotate(-5 290 210)"/>
    <ellipse cx="330" cy="200" rx="21" ry="8" fill="#22C55E" transform="rotate(25 330 200)"/>
    <ellipse cx="260" cy="215" rx="19" ry="7" fill="#16A34A" transform="rotate(-15 260 215)"/>
    <ellipse cx="350" cy="210" rx="17" ry="6" fill="#4ADE80" transform="rotate(10 350 210)"/>
  </g>
  <circle cx="315" cy="220" r="3" fill="#DC2626" opacity="0.6"/>
  <circle cx="295" cy="205" r="2.5" fill="#DC2626" opacity="0.5"/>
  <circle cx="340" cy="215" r="2" fill="#DC2626" opacity="0.5"/>
  <text x="300" y="350" text-anchor="middle" font-family="system-ui, sans-serif" font-size="16" fill="#9CA3AF">Green Chilli Flakes</text>
</svg>
