<svg xmlns="http://www.w3.org/2000/svg" width="600" height="400" viewBox="0 0 600 400">
  <rect width="600" height="400" fill="#FFFEFB"/>
  <ellipse cx="300" cy="220" rx="140" ry="100" fill="#FEF3C7" opacity="0.3"/>
  <g opacity="0.8">
    <path d="M260 180 Q275 165 290 180 L290 195 Q275 200 260 195 Z" fill="#FEF9C3" stroke="#E5E7EB" stroke-width="1"/>
    <path d="M300 175 Q315 160 330 175 L330 195 Q315 200 300 195 Z" fill="#FEF3C7" stroke="#E5E7EB" stroke-width="1"/>
    <path d="M280 200 Q295 185 310 200 L310 220 Q295 225 280 220 Z" fill="#FEFCE8" stroke="#E5E7EB" stroke-width="1"/>
    <path d="M320 195 Q335 180 350 195 L350 215 Q335 220 320 215 Z" fill="#FEF9C3" stroke="#E5E7EB" stroke-width="1"/>
    <path d="M245 205 Q260 190 275 205 L275 222 Q260 227 245 222 Z" fill="#FEF3C7" stroke="#E5E7EB" stroke-width="1"/>
  </g>
  <text x="300" y="350" text-anchor="middle" font-family="system-ui, sans-serif" font-size="16" fill="#9CA3AF">Coconut Chips</text>
</svg>
