<svg xmlns="http://www.w3.org/2000/svg" width="600" height="400" viewBox="0 0 600 400">
  <rect width="600" height="400" fill="#F9FAFB"/>
  <rect x="50" y="80" width="200" height="250" rx="4" fill="#E5E7EB"/>
  <rect x="60" y="100" width="180" height="12" fill="#D1D5DB"/>
  <rect x="60" y="125" width="180" height="12" fill="#D1D5DB"/>
  <rect x="60" y="150" width="120" height="12" fill="#D1D5DB"/>
  <circle cx="80" cy="200" r="15" fill="#059669" opacity="0.3"/>
  <rect x="105" y="195" width="100" height="10" fill="#D1D5DB"/>
  <rect x="60" y="230" width="180" height="8" fill="#E5E7EB"/>
  <rect x="60" y="250" width="180" height="8" fill="#E5E7EB"/>
  <rect x="60" y="270" width="140" height="8" fill="#E5E7EB"/>
  <rect x="350" y="80" width="200" height="250" rx="4" fill="#E5E7EB"/>
  <circle cx="450" cy="180" r="50" fill="#D1D5DB"/>
  <circle cx="450" cy="180" r="35" fill="#E5E7EB"/>
  <circle cx="450" cy="180" r="15" fill="#059669" opacity="0.4"/>
  <rect x="380" y="260" width="140" height="8" fill="#D1D5DB"/>
  <rect x="380" y="280" width="100" height="8" fill="#D1D5DB"/>
  <rect x="200" y="350" width="200" height="4" fill="#E5E7EB"/>
  <text x="300" y="375" text-anchor="middle" font-family="system-ui, sans-serif" font-size="14" fill="#9CA3AF">Processing Facility</text>
</svg>
