<svg xmlns="http://www.w3.org/2000/svg" width="600" height="400" viewBox="0 0 600 400">
  <rect width="600" height="400" fill="#F9FAFB"/>
  <rect x="60" y="120" width="150" height="200" rx="4" fill="#E5E7EB"/>
  <rect x="230" y="100" width="140" height="220" rx="4" fill="#E5E7EB"/>
  <rect x="390" y="80" width="150" height="240" rx="4" fill="#E5E7EB"/>
  <rect x="75" y="140" width="120" height="80" rx="4" fill="#D1D5DB"/>
  <rect x="75" y="240" width="60" height="60" rx="4" fill="#059669" opacity="0.2"/>
  <rect x="145" y="240" width="50" height="60" rx="4" fill="#D97706" opacity="0.2"/>
  <rect x="245" y="120" width="110" height="70" rx="4" fill="#D1D5DB"/>
  <rect x="245" y="210" width="110" height="80" rx="4" fill="#059669" opacity="0.15"/>
  <rect x="405" y="100" width="120" height="100" rx="4" fill="#D1D5DB"/>
  <rect x="405" y="220" width="120" height="70" rx="4" fill="#D97706" opacity="0.15"/>
  <rect x="200" y="340" width="200" height="4" fill="#E5E7EB"/>
  <text x="300" y="375" text-anchor="middle" font-family="system-ui, sans-serif" font-size="14" fill="#9CA3AF">Warehouse &amp; Logistics</text>
</svg>
